<svg width="176" height="176" viewBox="0 0 176 176" fill="none" xmlns="http://www.w3.org/2000/svg">
<path d="M87.7078 161.09H21.9268C17.8922 161.09 14.618 157.815 14.618 153.781V22.2193C14.618 18.1847 17.8925 14.9105 21.9268 14.9105H87.7078C91.7496 14.9105 95.0166 11.6435 95.0166 7.60168C95.0166 3.55986 91.7496 0.292175 87.7078 0.292175H21.9268C9.83778 0.292175 0 10.1303 0 22.2193V153.781C0 165.87 9.83778 175.707 21.9268 175.707H87.7078C91.7496 175.707 95.0166 172.44 95.0166 168.399C95.0166 164.357 91.7496 161.09 87.7078 161.09Z" fill="#5965E0"/>
<path d="M173.822 82.796L129.383 38.9421C126.518 36.1062 121.884 36.1429 119.049 39.0153C116.213 41.8877 116.242 46.5142 119.122 49.3502L150.879 80.6909H65.7807C61.7389 80.6909 58.4719 83.9579 58.4719 87.9997C58.4719 92.0415 61.7389 95.3088 65.7807 95.3088H150.879L119.122 126.65C116.242 129.485 116.22 134.112 119.049 136.984C120.481 138.432 122.367 139.162 124.253 139.162C126.109 139.162 127.965 138.461 129.383 137.057L173.822 93.2034C175.211 91.8294 176 89.958 176 87.9993C176 86.0413 175.218 84.1775 173.822 82.796Z" fill="#5965E0"/>
</svg>
