<svg width="456" height="71" viewBox="0 0 456 71" fill="none" xmlns="http://www.w3.org/2000/svg">
<path d="M36.7338 0.692261H53.9765L39.6321 70.9999H22.3894L36.7338 0.692261Z" fill="white"/>
<path d="M62.0337 0.692261H79.2764L68.1001 55.7797H50.8533L62.0337 0.692261Z" fill="white"/>
<path d="M11.1804 0.692261H28.4231L17.2468 55.7797H0L11.1804 0.692261Z" fill="white"/>
<path d="M294.989 50.5891C294.237 54.231 291.445 57.1824 287.222 57.1824C282.999 57.1824 281.429 54.2352 282.182 50.5891C282.934 46.943 285.726 44 289.949 44C294.171 44 295.729 46.943 294.989 50.5891Z" fill="#4CD62B"/>
<path d="M134.141 18.212C138.161 18.212 141.288 19.284 143.521 21.428C145.799 23.5273 146.938 26.4753 146.938 30.272C146.938 31.4333 146.804 32.7287 146.536 34.158L142.65 56H131.26L134.878 35.699C134.967 35.2523 135.012 34.6493 135.012 33.89C135.012 32.014 134.476 30.5847 133.404 29.602C132.377 28.6193 130.925 28.128 129.049 28.128C126.816 28.128 124.94 28.798 123.421 30.138C121.902 31.4333 120.942 33.287 120.54 35.699L116.922 56H105.532L109.15 35.699C109.239 35.2523 109.284 34.6493 109.284 33.89C109.284 32.014 108.748 30.5847 107.676 29.602C106.649 28.6193 105.197 28.128 103.321 28.128C101.088 28.128 99.2117 28.798 97.693 30.138C96.1743 31.4333 95.214 33.287 94.812 35.699V35.364L91.194 56H79.737L86.303 18.614H97.76L96.956 23.371C98.3853 21.763 100.105 20.5123 102.115 19.619C104.17 18.681 106.381 18.212 108.748 18.212C111.607 18.212 114.019 18.815 115.984 20.021C117.994 21.227 119.423 22.969 120.272 25.247C121.925 23.1477 123.979 21.4503 126.436 20.155C128.893 18.8597 131.461 18.212 134.141 18.212Z" fill="white"/>
<path d="M167.748 56.536C164.532 56.536 161.673 55.8883 159.172 54.593C156.67 53.2977 154.727 51.4663 153.343 49.099C152.003 46.7317 151.333 43.9847 151.333 40.858C151.333 36.6147 152.338 32.751 154.348 29.267C156.358 25.783 159.127 23.0583 162.656 21.093C166.184 19.083 170.115 18.078 174.448 18.078C177.664 18.078 180.522 18.748 183.024 20.088C185.57 21.3833 187.535 23.2147 188.92 25.582C190.304 27.9493 190.997 30.6963 190.997 33.823C190.997 38.111 189.969 41.997 187.915 45.481C185.905 48.9203 183.113 51.6227 179.54 53.588C176.011 55.5533 172.08 56.536 167.748 56.536ZM169.356 46.687C171.232 46.687 172.907 46.1287 174.381 45.012C175.899 43.8507 177.061 42.3767 177.865 40.59C178.713 38.7587 179.138 36.8603 179.138 34.895C179.138 32.6617 178.535 30.942 177.329 29.736C176.123 28.53 174.604 27.927 172.773 27.927C170.852 27.927 169.155 28.5077 167.681 29.669C166.251 30.7857 165.135 32.2597 164.331 34.091C163.527 35.9223 163.125 37.843 163.125 39.853C163.125 42.0417 163.705 43.739 164.867 44.945C166.028 46.1063 167.524 46.687 169.356 46.687Z" fill="white"/>
<path d="M212.016 45.28L224.88 18.614H237.141L217.242 56H203.038L196.405 18.614H208.599L212.016 45.28Z" fill="white"/>
<path d="M258.579 18.078C263.403 18.078 267.222 19.3957 270.036 22.031C272.895 24.6217 274.324 28.1727 274.324 32.684C274.324 34.158 274.213 35.4757 273.989 36.637C273.811 37.6643 273.543 38.7587 273.185 39.92H247.256C247.212 40.188 247.189 40.6123 247.189 41.193C247.189 43.1583 247.725 44.6547 248.797 45.682C249.869 46.7093 251.299 47.223 253.085 47.223C255.944 47.223 258.133 46.017 259.651 43.605H271.845C270.237 47.4017 267.624 50.506 264.006 52.918C260.388 55.33 256.324 56.536 251.812 56.536C246.988 56.536 243.125 55.196 240.221 52.516C237.363 49.836 235.933 46.1957 235.933 41.595C235.933 40.2103 236.067 38.781 236.335 37.307C237.005 33.421 238.39 30.0263 240.489 27.123C242.589 24.2197 245.202 21.9863 248.328 20.423C251.455 18.8597 254.872 18.078 258.579 18.078ZM262.733 34.091C262.823 33.4657 262.867 33.0413 262.867 32.818C262.867 31.0313 262.309 29.669 261.192 28.731C260.076 27.7483 258.602 27.257 256.77 27.257C254.805 27.257 253.063 27.86 251.544 29.066C250.07 30.2273 248.998 31.9023 248.328 34.091H262.733Z" fill="white"/>
<path d="M315.802 15.728C314.015 15.728 312.586 15.259 311.514 14.321C310.487 13.3383 309.973 12.11 309.973 10.636C309.973 8.62601 310.755 6.90634 312.318 5.47701C313.881 4.04767 315.78 3.33301 318.013 3.33301C319.8 3.33301 321.207 3.82434 322.234 4.80701C323.261 5.74501 323.775 6.97334 323.775 8.49201C323.775 10.4573 322.993 12.1547 321.43 13.584C319.867 15.0133 317.991 15.728 315.802 15.728ZM320.76 19.614L314.194 57H302.737L309.303 19.614H320.76Z" fill="white"/>
<path d="M338.041 44.136C337.996 44.3593 337.974 44.6497 337.974 45.007C337.974 45.811 338.197 46.3917 338.644 46.749C339.135 47.1063 339.917 47.285 340.989 47.285H345.076L343.334 57H337.505C330.001 57 326.249 53.851 326.249 47.553C326.249 46.615 326.36 45.4313 326.584 44.002L329.264 29.128H324.708L326.383 19.614H330.939L332.547 10.502H344.004L342.396 19.614H349.9L348.225 29.128H340.721L338.041 44.136Z" fill="white"/>
<path d="M350.788 38.24C351.458 34.3987 352.775 31.0263 354.741 28.123C356.706 25.2197 359.073 22.9863 361.843 21.423C364.612 19.8597 367.538 19.078 370.62 19.078C373.255 19.078 375.466 19.614 377.253 20.686C379.039 21.758 380.335 23.165 381.139 24.907L382.077 19.614H393.534L386.901 57H375.444L376.449 51.707C375.019 53.449 373.21 54.856 371.022 55.928C368.833 57 366.421 57.536 363.786 57.536C361.15 57.536 358.805 56.933 356.751 55.727C354.741 54.521 353.177 52.8237 352.061 50.635C350.944 48.4017 350.386 45.7887 350.386 42.796C350.386 41.3667 350.52 39.848 350.788 38.24ZM378.794 38.307C378.928 37.503 378.995 36.766 378.995 36.096C378.995 33.9073 378.347 32.1877 377.052 30.937C375.801 29.6863 374.193 29.061 372.228 29.061C369.95 29.061 367.873 29.8873 365.997 31.54C364.121 33.148 362.937 35.3813 362.446 38.24C362.312 39.044 362.245 39.781 362.245 40.451C362.245 42.6397 362.87 44.3817 364.121 45.677C365.416 46.9277 367.024 47.553 368.945 47.553C371.223 47.553 373.3 46.7267 375.176 45.074C377.052 43.4213 378.258 41.1657 378.794 38.307Z" fill="white"/>
<path d="M415.423 7.42001L406.646 57H395.189L403.966 7.42001H415.423Z" fill="white"/>
<path d="M432.034 57.536C428.818 57.536 425.959 56.8883 423.458 55.593C420.957 54.2977 419.014 52.4663 417.629 50.099C416.289 47.7317 415.619 44.9847 415.619 41.858C415.619 37.6147 416.624 33.751 418.634 30.267C420.644 26.783 423.413 24.0583 426.942 22.093C430.471 20.083 434.401 19.078 438.734 19.078C441.95 19.078 444.809 19.748 447.31 21.088C449.856 22.3833 451.821 24.2147 453.206 26.582C454.591 28.9493 455.283 31.6963 455.283 34.823C455.283 39.111 454.256 42.997 452.201 46.481C450.191 49.9203 447.399 52.6227 443.826 54.588C440.297 56.5533 436.367 57.536 432.034 57.536ZM433.642 47.687C435.518 47.687 437.193 47.1287 438.667 46.012C440.186 44.8507 441.347 43.3767 442.151 41.59C443 39.7587 443.424 37.8603 443.424 35.895C443.424 33.6617 442.821 31.942 441.615 30.736C440.409 29.53 438.89 28.927 437.059 28.927C435.138 28.927 433.441 29.5077 431.967 30.669C430.538 31.7857 429.421 33.2597 428.617 35.091C427.813 36.9223 427.411 38.843 427.411 40.853C427.411 43.0417 427.992 44.739 429.153 45.945C430.314 47.1063 431.811 47.687 433.642 47.687Z" fill="white"/>
</svg>
